<svg version="1.1" id="layer" xmlns="http://www.w3.org/2000/svg" xmlns:xlink="http://www.w3.org/1999/xlink" x="0px" y="0px"
	 viewBox="0 0 652 652" style="enable-background:new 0 0 652 652;" xml:space="preserve">
<style type="text/css">
	.st0{fill:#001E62;}
	.st1{fill:#C8102E;}
	.st2{fill:#FFFFFF;}
</style>
<rect x="71.3" y="71.3" class="st0" width="500" height="500"/>
<rect x="149.8" y="461.1" class="st1" width="386.4" height="8.3"/>
<g>
	<path class="st2" d="M181.6,275.5V274c5.3-2.3,8.3-6.8,8.3-12.9c0-11.4-7.6-18.2-22-18.2h-18.2v65.9h22c13.6,0,22-6.8,22-18.9
		C193.7,285.4,192.2,277.8,181.6,275.5z M159.6,251.3h9.1c8.3,0,12.9,3,12.9,9.8c0,6.8-4.5,9.8-12.9,9.8h-9.1V251.3z M171.7,300.5
		h-12.1v-21.2h12.9c8.3,0,12.9,3.8,12.9,10.6S180.1,300.5,171.7,300.5z"/>
	<polygon class="st2" points="186.1,206.6 159.6,206.6 159.6,149.8 149.8,149.8 149.8,215.7 186.1,215.7 	"/>
	<path class="st2" d="M233.1,191.4c0-14.4-9.1-25-22-25c-12.9,0-22,9.8-22,25s9.1,25,22,25C224,216.4,233.1,206.6,233.1,191.4z
		 M198.2,191.4c0-9.8,5.3-16.7,12.9-16.7s12.9,6.8,12.9,16.7c0,9.8-5.3,16.7-12.9,16.7S198.2,202,198.2,191.4z"/>
	<path class="st2" d="M269.5,353.5c-5.3,0-9.8,2.3-14.4,6.1v-26.5l-9.1,4.5V402h9.1v-32.6c2.3-3.8,7.6-7.6,12.9-7.6
		c6.8,0,7.6,3.8,7.6,10.6V402h9.1V371C285.4,359.6,280.1,353.5,269.5,353.5z"/>
	<path class="st2" d="M252,183.1c2.3-3.8,7.6-7.6,12.9-7.6c6.8,0,7.6,3.8,7.6,10.6v29.5h9.1v-31.1c0-11.4-5.3-17.4-15.9-17.4
		c-5.3,0-10.6,2.3-15.2,6.8l0,0v-6.1h-7.6v47.7h9.1C252,215.7,252,183.1,252,183.1z"/>
	<path class="st2" d="M232.3,293.7c-2.3,3.8-7.6,7.6-12.9,7.6c-6.8,0-7.6-3.8-7.6-10.6v-29.5h-9.1v31.1c0,11.4,5.3,17.4,15.9,17.4
		c5.3,0,10.6-2.3,15.2-6.8l0,0v6.1h7.6v-47.7h-9.1V293.7z"/>
	<path class="st2" d="M427,185.4v29.5h9.1v-31.1c0-11.4-5.3-17.4-15.9-17.4c-5.3,0-10.6,2.3-15.2,6.8l0,0v-5.3h-7.6v47.7h9.1v-32.6
		c2.3-3.8,7.6-7.6,12.9-7.6C425.5,175.5,427,179.3,427,185.4z"/>
	<path class="st2" d="M346.7,279.3v29.5h9.8v-31.1c0-11.4-5.3-17.4-15.9-17.4c-5.3,0-10.6,2.3-15.2,6.8l0,0v-6.1h-7.6v47.7h8.3
		v-32.6c2.3-3.8,7.6-7.6,12.9-7.6C346,268.7,346.7,272.5,346.7,279.3z"/>
	<path class="st2" d="M311.9,216.4c6.1,0,11.4-3,13.6-6.8l0,0v5.3h7.6v-68.2l-9.1,4.5v21.2c-2.3-3-6.8-5.3-12.9-5.3
		c-10.6,0-21.2,7.6-21.2,25C290.7,204.3,297.5,216.4,311.9,216.4z M313.4,174.8c4.5,0,9.1,3,11.4,7.6v18.9
		c-2.3,4.5-6.8,7.6-11.4,7.6c-8.3,0-13.6-6.8-13.6-16.7C299.8,182.3,305.1,174.8,313.4,174.8z"/>
	<path class="st2" d="M364.9,216.4c12.9,0,22-9.8,22-25s-9.1-25-22-25c-12.9,0-22,9.8-22,25S352,216.4,364.9,216.4z M364.9,174.8
		c7.6,0,12.9,6.8,12.9,16.7c0,9.8-5.3,16.7-12.9,16.7c-7.6,0-12.9-6.8-12.9-16.7C352,181.6,357.3,174.8,364.9,174.8z"/>
	<path class="st2" d="M316.4,353.5c-12.9,0-22,9.8-22,25c0,15.2,9.1,25,22,25c12.9,0,22-9.8,22-25
		C338.4,363.4,329.3,353.5,316.4,353.5z M316.4,395.2c-7.6,0-12.9-6.8-12.9-16.7s5.3-16.7,12.9-16.7c7.6,0,12.9,6.8,12.9,16.7
		S324,395.2,316.4,395.2z"/>
	<path class="st2" d="M366.4,353.5c-12.9,0-22,9.8-22,25c0,15.2,9.1,25,22,25s22-9.8,22-25C388.4,363.4,379.3,353.5,366.4,353.5z
		 M366.4,395.2c-7.6,0-12.9-6.8-12.9-16.7s5.3-16.7,12.9-16.7s12.9,6.8,12.9,16.7S374,395.2,366.4,395.2z"/>
	<polygon class="st2" points="398.2,402 407.3,402 407.3,333.1 398.2,337.6 	"/>
	<rect x="296" y="261.1" class="st2" width="9.1" height="47.7"/>
	<polygon class="st2" points="305.1,242.9 296,242.9 296,253.5 305.1,253.5 	"/>
	<path class="st2" d="M179.3,367.2l-9.8-3.8c-4.5-2.3-9.8-4.5-9.8-10.6c0-5.3,3.8-9.1,11.4-9.1c5.3,0,9.8,2.3,14.4,6.8l5.3-6.8
		c-5.3-5.3-12.1-8.3-19.7-8.3c-12.1,0-20.5,7.6-20.5,18.2c0,10.6,8.3,15.9,12.9,17.4l9.8,3.8c6.1,2.3,9.8,4.5,9.8,10.6
		c0,6.1-4.5,9.8-12.9,9.8c-6.1,0-12.9-3.8-17.4-8.3l-5.3,6.8c5.3,5.3,15.2,9.8,22.7,9.8c12.9,0,22-7.6,22-18.2
		S185.4,370.2,179.3,367.2z"/>
	<path class="st2" d="M222.5,394.5c-8.3,0-13.6-6.1-13.6-16.7c0-9.8,5.3-16.7,14.4-16.7c3.8,0,6.8,1.5,9.1,3.8l4.5-6.8
		c-4.5-3.8-9.1-6.1-14.4-6.1c-6.1,0-12.1,2.3-15.9,6.8c-4.5,4.5-6.8,11.4-6.8,18.9c0,15.2,9.1,25,22.7,25c5.3,0,11.4-2.3,15.9-6.1
		l-3.8-6.8C230.8,392.9,227,394.5,222.5,394.5z"/>
	<path class="st2" d="M433.9,281.6l-2.3-0.8c-5.3-1.5-9.1-3.8-9.1-7.6c0-3.8,3-6.1,8.3-6.1c3.8,0,7.6,2.3,10.6,4.5l4.5-6.8
		c-2.3-2.3-8.3-6.1-15.2-6.1c-9.8,0-16.7,5.3-16.7,13.6c0,9.1,8.3,12.1,14.4,14.4l0.8,0.8c4.5,1.5,9.1,3,9.1,7.6
		c0,3.8-3,6.8-8.3,6.8c-5.3,0-10.6-3-13.6-6.1l-5.3,7.6c5.3,3.8,12.1,6.8,18.2,6.8c12.1,0,17.4-7.6,17.4-14.4
		C446.7,286.1,439.9,283.9,433.9,281.6z"/>
	<path class="st2" d="M272.5,281.6l-1.5-0.8c-5.3-1.5-9.1-3.8-9.1-7.6c0-3.8,3-6.1,8.3-6.1c3.8,0,7.6,2.3,10.6,4.5l4.5-6.8
		c-2.3-2.3-8.3-6.1-15.2-6.1c-9.8,0-16.7,5.3-16.7,13.6c0,9.1,8.3,12.1,14.4,14.4l0.8,0.8c4.5,1.5,9.1,3,9.1,7.6
		c0,3.8-3,6.8-8.3,6.8s-10.6-3-13.6-6.1l-6.1,7.6c5.3,3.8,12.1,6.8,18.2,6.8c12.1,0,17.4-7.6,17.4-14.4
		C286.1,286.9,278.5,283.9,272.5,281.6z"/>
	<path class="st2" d="M474.8,281.6l-2.3-0.8c-5.3-1.5-9.1-3.8-9.1-7.6c0-3.8,3-6.1,8.3-6.1c3.8,0,7.6,2.3,10.6,4.5l4.5-6.8
		c-2.3-2.3-8.3-6.1-15.2-6.1c-9.8,0-16.7,5.3-16.7,13.6c0,9.1,8.3,12.1,14.4,14.4l0.8,0.8c4.5,1.5,9.1,3,9.1,7.6
		c0,3.8-3,6.8-8.3,6.8c-5.3,0-10.6-3-13.6-6.1l-5.3,7.6c5.3,3.8,12.1,6.8,18.2,6.8c12.1,0,17.4-7.6,17.4-14.4
		C487.6,286.1,480.8,283.9,474.8,281.6z"/>
	<path class="st2" d="M399.8,264.9c-3-3.8-7.6-5.3-13.6-5.3c-10.6,0-22,9.1-22,25c0,15.2,9.1,25,22.7,25c5.3,0,10.6-1.5,15.9-5.3
		h0.8l-3-6.8h-0.8c-3.8,2.3-7.6,3.8-11.4,3.8c-8.3,0-14.4-5.3-15.2-14.4h31.8C406.6,277.8,404.3,270.2,399.8,264.9z M374,280.1
		c0.8-7.6,6.1-12.9,12.9-12.9c6.8,0,10.6,6.1,10.6,12.9H374z"/>
</g>
</svg>