<?xml version="1.0" standalone="no"?>
<!DOCTYPE svg PUBLIC "-//W3C//DTD SVG 20010904//EN"
 "http://www.w3.org/TR/2001/REC-SVG-20010904/DTD/svg10.dtd">
<svg version="1.0" xmlns="http://www.w3.org/2000/svg"
 width="640.000000pt" height="640.000000pt" viewBox="0 0 640.000000 640.000000"
 preserveAspectRatio="xMidYMid meet">
<metadata>
Created by potrace 1.14, written by Peter Selinger 2001-2017
</metadata>
<g transform="translate(0.000000,640.000000) scale(0.100000,-0.100000)"
fill="#000000" stroke="none">
<path d="M3305 5860 c-3 -5 1 -10 10 -10 9 0 13 5 10 10 -3 6 -8 10 -10 10 -2
0 -7 -4 -10 -10z"/>
<path d="M2928 5813 c7 -3 16 -2 19 1 4 3 -2 6 -13 5 -11 0 -14 -3 -6 -6z"/>
<path d="M3355 5745 c-22 -7 -34 -13 -27 -14 7 -1 10 -6 6 -12 -4 -7 -23 -9
-53 -5 -27 3 -40 2 -33 -3 11 -6 10 -10 -3 -15 -22 -8 -27 -8 -21 3 3 5 -9 7
-27 6 -17 -2 -32 -4 -32 -5 0 -1 -9 -4 -20 -5 -34 -5 -75 -24 -75 -36 0 -6 7
-8 17 -5 9 4 35 11 58 16 23 5 50 12 60 16 14 6 16 4 10 -6 -6 -10 -4 -12 9
-7 10 4 30 10 44 13 26 6 26 6 8 -9 -18 -13 -16 -15 35 -15 30 -1 90 -8 134
-16 l80 -14 -90 5 c-49 2 -95 6 -102 8 -7 2 -10 -2 -7 -9 5 -14 -50 -66 -69
-66 -7 1 -1 8 13 16 l25 15 -28 -6 c-19 -4 -26 -2 -22 5 8 13 -1 13 -26 -1
-11 -5 -17 -15 -13 -21 4 -6 -1 -8 -13 -4 -11 4 -33 1 -49 -5 -16 -6 -39 -12
-52 -14 -12 -1 -31 -10 -42 -20 -16 -15 -36 -20 -93 -24 -5 -1 -5 -6 -1 -12 3
-6 24 -9 45 -7 24 2 38 0 36 -7 -2 -5 -25 -9 -51 -8 -25 1 -44 -1 -42 -5 2 -4
-19 -8 -47 -10 -70 -4 -94 -11 -76 -23 11 -7 9 -9 -6 -9 -18 -1 -18 -2 -3 -10
9 -6 29 -9 45 -8 60 4 124 -2 118 -12 -10 -17 -146 -9 -194 11 -40 18 -43 18
-37 1 4 -10 -3 -7 -18 10 -13 15 -26 24 -29 21 -3 -3 -11 4 -18 15 -10 16 -20
19 -43 15 -27 -5 -29 -4 -19 8 10 13 7 15 -25 14 -20 0 -43 -5 -51 -9 -10 -6
-12 -5 -7 2 5 8 2 10 -8 6 -9 -3 -16 -11 -17 -18 0 -6 -4 -1 -9 12 -10 23 -25
29 -35 12 -15 -24 -27 -8 -21 28 3 20 3 31 0 24 -4 -9 -10 -10 -19 -2 -17 14
-39 -13 -32 -40 3 -11 1 -20 -4 -20 -4 0 -6 -7 -3 -15 4 -8 2 -15 -4 -15 -6 0
-13 6 -15 13 -3 6 -6 3 -6 -8 -1 -23 -37 -50 -46 -35 -11 18 -26 -1 -19 -23 6
-19 5 -20 -9 -9 -12 10 -16 10 -20 0 -4 -10 -6 -10 -6 0 -1 6 -6 12 -11 12 -6
0 -8 -12 -4 -27 l6 -28 -21 25 -22 25 7 -27 c5 -24 3 -26 -16 -21 -20 5 -21 4
-11 -16 10 -17 9 -21 -3 -21 -10 0 -13 -6 -9 -17 6 -16 5 -16 -10 -4 -15 12
-17 12 -11 -4 5 -11 3 -16 -3 -12 -5 3 -9 -8 -9 -27 1 -27 4 -32 21 -29 19 4
19 3 3 -10 -14 -11 -15 -16 -5 -27 10 -12 9 -12 -3 -3 -8 6 -19 11 -25 11 -5
0 -12 9 -16 19 -7 17 -7 17 -15 -1 -5 -13 -2 -23 9 -31 9 -7 14 -15 11 -18 -4
-3 20 -4 52 -2 41 2 52 1 37 -5 -13 -5 -23 -12 -23 -15 0 -7 53 6 60 14 3 3
38 6 78 7 74 1 97 8 72 24 -10 6 -2 8 23 7 22 -1 39 -8 43 -17 5 -13 7 -12 19
3 12 17 14 16 31 -12 23 -38 33 -40 26 -3 -4 26 -4 26 12 7 12 -15 16 -16 16
-5 0 9 14 0 33 -23 28 -33 33 -35 34 -17 1 11 -2 18 -8 15 -5 -4 -9 -1 -9 4 0
6 3 11 8 11 8 0 78 -65 89 -83 4 -7 23 -23 40 -36 27 -18 32 -19 26 -5 -5 14
-3 16 12 11 9 -4 23 -2 31 4 7 6 22 8 34 4 18 -6 19 -9 8 -22 -12 -15 -11 -15
9 -4 18 9 35 9 79 -3 31 -8 61 -19 67 -25 7 -7 -2 -7 -27 0 -68 19 -90 -7 -31
-35 20 -10 33 -20 31 -24 -3 -4 9 -14 25 -21 16 -7 29 -20 29 -29 1 -26 86
-85 123 -85 18 0 26 -2 19 -5 -18 -6 5 -32 29 -32 10 0 28 -10 39 -22 20 -22
36 -27 90 -29 14 0 48 -9 76 -19 29 -10 55 -16 58 -13 3 4 16 2 29 -4 71 -34
81 -36 215 -31 45 2 82 1 82 -2 0 -3 10 -5 23 -5 12 -1 33 -5 46 -9 16 -6 21
-5 17 3 -4 6 -1 11 7 11 14 0 97 -78 97 -91 0 -4 29 -21 65 -38 73 -35 133
-51 121 -33 -4 7 -16 12 -27 12 -49 0 -139 65 -189 135 -12 17 -11 17 11 -2
26 -24 86 -49 95 -40 3 3 -10 10 -29 16 -41 14 -69 42 -58 59 10 16 66 -2 100
-32 13 -11 21 -15 17 -8 -8 14 10 17 19 2 3 -5 19 -8 35 -6 18 2 31 -2 34 -10
3 -8 12 -14 21 -14 8 0 15 -7 15 -16 0 -8 4 -13 9 -9 5 3 13 0 17 -6 5 -8 3
-9 -6 -4 -9 6 -11 -1 -8 -29 4 -35 -4 -47 -17 -26 -3 6 -12 10 -18 10 -7 0 -4
-5 6 -11 9 -5 17 -17 17 -26 0 -13 -2 -14 -17 -2 -17 13 -17 13 0 -13 21 -34
22 -49 2 -42 -9 4 -15 1 -15 -7 0 -9 -3 -10 -11 -2 -6 6 -19 8 -30 6 -14 -4
-16 -9 -9 -23 15 -27 12 -38 -4 -17 -9 12 -16 14 -21 8 -3 -6 -2 -11 3 -11 6
0 13 -7 16 -16 4 -10 2 -13 -6 -8 -8 5 -9 2 -5 -9 8 -22 -25 -23 -43 -2 -11
13 -15 13 -21 3 -12 -18 -11 -30 1 -23 6 3 10 1 10 -4 0 -6 -4 -11 -10 -11 -5
0 -10 -9 -10 -21 0 -14 -5 -19 -17 -17 -10 2 -17 11 -17 21 2 22 -9 22 -30 -2
-23 -26 -12 -42 26 -38 17 1 33 -3 35 -10 3 -7 -3 -9 -16 -6 -33 8 -52 -13
-39 -43 9 -20 8 -27 -7 -38 -10 -7 -29 -11 -44 -10 -14 2 -18 1 -8 -2 9 -3 17
-10 17 -15 0 -5 11 -14 25 -19 14 -5 25 -16 25 -24 0 -8 6 -17 13 -20 10 -5
10 -7 0 -12 -19 -9 -16 -27 3 -20 15 6 15 4 0 -19 -9 -14 -12 -25 -6 -25 5 0
10 -11 10 -25 0 -16 6 -25 15 -25 16 0 16 -20 0 -32 -6 -5 -6 -8 2 -8 6 0 20
11 31 25 22 28 34 33 26 10 -7 -18 0 -19 27 -5 13 7 19 7 19 0 0 -5 -7 -10
-15 -10 -19 0 -20 -36 -1 -43 8 -3 22 1 33 8 16 13 16 16 3 25 -13 9 -13 11 0
20 12 8 13 10 1 10 -8 0 -12 3 -8 6 6 6 40 -9 38 -17 -1 -2 3 -19 10 -37 10
-28 13 -31 27 -20 9 8 13 8 9 2 -9 -16 3 -75 14 -68 5 3 9 -6 9 -20 0 -14 5
-26 11 -26 5 0 7 -5 4 -10 -4 -6 -11 -8 -17 -4 -5 3 -2 -8 7 -26 11 -21 13
-35 7 -39 -7 -4 -3 -16 8 -31 11 -14 20 -20 20 -13 0 6 -4 15 -10 18 -5 3 -10
11 -10 17 0 7 4 7 14 -1 11 -9 11 -5 2 23 -6 19 -14 32 -18 30 -4 -3 -8 0 -8
5 0 20 28 11 44 -14 12 -18 13 -30 6 -49 -5 -14 -7 -33 -3 -42 3 -9 1 -19 -4
-23 -13 -8 -23 -95 -13 -111 6 -9 9 -9 15 0 5 8 17 -3 36 -32 29 -43 35 -85
19 -123 -8 -19 -9 -19 -9 1 -1 27 -17 33 -58 22 -24 -6 -35 -17 -44 -43 -8
-22 -20 -35 -31 -35 -23 0 -24 32 -2 65 11 17 12 25 5 25 -7 0 -10 4 -7 9 3 4
-3 16 -14 26 -19 17 -25 13 -22 -16 1 -3 -13 -6 -29 -6 -30 0 -53 -19 -43 -35
3 -4 -2 -5 -11 -2 -11 5 -16 2 -15 -7 5 -35 -2 -58 -25 -82 l-26 -25 -22 21
c-18 18 -20 25 -10 35 17 18 16 29 -2 36 -18 6 -20 36 -3 36 6 0 4 8 -6 19
-10 11 -15 25 -11 32 6 8 3 9 -11 1 -10 -6 -27 -7 -40 -2 -12 5 -24 6 -27 4
-3 -3 -15 -1 -26 6 -13 6 -21 7 -21 1 0 -10 -45 -5 -63 6 -5 3 -4 -4 2 -15 17
-32 -6 -71 -24 -42 -5 8 -11 7 -21 -1 -9 -7 -14 -8 -14 -1 0 6 -10 12 -22 14
-15 2 -22 9 -20 19 1 10 -6 19 -18 22 -13 3 -20 0 -20 -9 0 -8 4 -14 10 -14 5
0 7 -6 4 -14 -3 -8 -1 -17 5 -21 16 -10 13 -45 -4 -45 -20 0 -19 -16 1 -24 22
-8 26 -8 19 4 -8 12 5 13 23 1 21 -13 -27 -22 -50 -10 -14 8 -18 6 -18 -8 0
-13 -3 -14 -12 -5 -7 7 -16 12 -22 12 -5 0 -6 -3 -3 -6 3 -4 1 -16 -4 -27 -9
-15 -13 -17 -20 -6 -4 7 -12 10 -16 5 -4 -4 1 -14 11 -22 24 -17 12 -33 -13
-17 -13 8 -25 7 -49 -2 -23 -10 -32 -11 -35 -2 -3 9 -7 9 -18 0 -11 -9 -18 -8
-33 3 -19 13 -36 11 -36 -6 0 -5 6 -7 13 -4 8 3 20 -2 27 -11 10 -12 10 -15 0
-15 -18 0 -80 40 -80 51 0 5 -6 9 -13 9 -8 0 -22 9 -32 20 -10 11 -24 20 -31
20 -8 0 -11 6 -8 15 5 11 2 13 -10 9 -18 -7 -21 6 -6 24 7 9 7 9 -2 2 -17 -14
-28 -12 -28 6 0 8 5 12 10 9 6 -3 10 -2 10 3 0 13 -25 22 -48 17 -13 -2 -19 2
-18 13 0 9 -5 16 -11 14 -7 -1 -13 3 -13 9 0 7 -10 9 -25 7 -20 -4 -23 -3 -14
8 16 20 30 17 64 -12 27 -23 30 -24 36 -7 4 10 8 13 8 7 1 -7 9 -15 18 -18 10
-4 14 -4 11 0 -9 8 16 34 33 34 7 0 21 -8 32 -17 20 -17 20 -17 13 1 -4 12 0
26 11 39 14 16 15 19 3 15 -8 -3 -21 1 -29 9 -12 13 -11 14 10 8 13 -4 30 -10
37 -12 6 -3 12 2 12 10 0 10 8 15 20 14 11 -1 20 -4 20 -7 0 -8 89 -12 121 -5
16 4 29 13 29 20 0 14 21 25 50 25 9 0 23 6 29 14 12 15 74 28 65 14 -3 -4 -1
-8 5 -8 5 0 11 5 13 10 2 6 17 11 34 13 22 1 30 6 26 16 -4 10 3 9 28 -4 23
-12 30 -13 24 -3 -18 29 -12 36 22 31 22 -4 34 -2 34 6 0 6 7 11 16 11 9 0 14
-6 11 -13 -9 -25 94 -79 108 -56 9 13 -13 29 -31 22 -6 -2 -15 1 -19 6 -3 6
-11 9 -16 5 -5 -3 -8 0 -7 8 2 7 12 15 23 18 11 4 20 14 20 25 0 12 6 19 14
17 10 -2 12 1 5 10 -6 7 -10 39 -9 71 1 41 -2 60 -12 64 -7 3 -11 9 -8 13 2 4
-4 18 -15 30 -11 13 -20 29 -20 35 0 7 -7 15 -15 19 -8 3 -12 12 -9 21 3 8 1
15 -5 15 -18 0 -88 54 -97 75 -5 11 -20 23 -34 26 -47 11 -70 21 -70 31 0 5
-8 8 -17 7 -36 -3 -64 1 -59 9 8 13 -40 36 -58 29 -8 -3 -18 -2 -22 4 -3 6
-12 8 -19 5 -8 -3 -17 4 -20 15 -5 16 -10 18 -20 9 -16 -13 -55 -4 -55 12 0 5
6 8 13 5 8 -3 14 1 14 9 0 20 -25 17 -31 -3 -3 -11 -16 -18 -30 -18 -15 0 -22
5 -19 13 3 6 0 12 -7 12 -6 0 -9 4 -6 9 3 5 -5 12 -18 15 -13 3 -30 8 -38 11
-8 3 -23 -3 -33 -12 -11 -10 -33 -19 -49 -20 -16 0 -31 -5 -35 -10 -9 -12 -34
-15 -26 -3 3 5 3 10 -2 11 -4 0 -18 2 -30 3 -13 2 -23 -1 -23 -6 0 -5 -4 -6
-10 -3 -5 3 -10 1 -10 -4 0 -6 -10 -11 -21 -11 -16 0 -19 3 -11 13 7 8 7 18 2
27 -8 12 -10 12 -10 -3 0 -10 -5 -15 -10 -12 -7 4 -9 -2 -4 -19 4 -17 2 -26
-6 -26 -6 0 -9 4 -6 9 9 14 -4 41 -19 41 -8 0 -17 -5 -21 -12 -5 -8 -2 -9 9
-5 22 8 21 5 -2 -22 -11 -13 -25 -19 -35 -15 -12 4 -16 0 -16 -15 0 -12 -6
-21 -15 -21 -8 0 -15 8 -15 19 0 10 -7 24 -15 31 -12 10 -15 9 -15 -5 0 -12
-6 -16 -19 -12 -16 4 -18 0 -15 -19 3 -16 -1 -27 -11 -30 -8 -4 -15 -11 -14
-18 3 -25 -2 -36 -15 -36 -8 0 -17 -7 -20 -16 -10 -26 -7 -29 9 -8 8 11 15 14
15 7 0 -7 6 -13 13 -13 25 0 67 -25 62 -37 -4 -12 12 -110 23 -143 3 -8 4 -27
3 -42 -1 -15 1 -33 5 -40 5 -7 9 -19 10 -28 1 -8 5 -25 9 -37 5 -16 3 -25 -9
-29 -9 -3 -13 -11 -10 -16 4 -6 9 -6 14 2 8 13 30 5 30 -10 0 -6 -15 -16 -34
-24 -18 -8 -37 -20 -42 -27 -6 -12 -5 -12 8 -1 14 11 18 8 32 -19 9 -18 16
-38 16 -46 0 -7 4 -13 9 -13 12 0 35 -60 33 -83 -1 -10 5 -20 13 -23 8 -4 15
-13 15 -21 0 -13 -3 -13 -15 -3 -19 16 -20 3 -1 -16 10 -9 17 -10 21 -4 4 6
17 3 35 -10 15 -11 34 -20 42 -20 9 -1 7 -5 -5 -14 -17 -14 -18 -16 -2 -40 9
-14 14 -30 10 -36 -8 -13 -45 -13 -45 0 0 6 -3 9 -7 8 -20 -5 -92 13 -103 27
-10 12 -15 12 -34 0 -13 -9 -49 -17 -82 -20 -32 -2 -60 -9 -62 -15 -2 -5 -14
-10 -27 -10 -13 0 -25 -6 -27 -12 -3 -9 -12 -8 -32 6 -20 13 -31 15 -39 7 -19
-19 -13 -79 11 -111 12 -16 17 -27 10 -24 -7 2 -24 20 -38 38 -20 27 -29 32
-42 25 -26 -14 -22 -32 5 -24 16 4 18 4 8 -3 -11 -8 -10 -12 8 -21 12 -7 19
-16 16 -21 -3 -5 -7 -26 -9 -47 -3 -37 -2 -39 43 -61 26 -12 52 -22 58 -22 18
0 27 -21 14 -30 -7 -4 -34 -3 -59 2 -26 5 -101 11 -167 13 -144 5 -244 19
-263 39 -23 22 2 84 54 133 26 24 47 54 50 73 4 17 11 33 15 36 5 3 9 18 9 33
0 16 7 34 15 41 8 6 17 22 21 33 3 12 16 32 27 45 l20 22 -35 0 c-19 0 -57 -9
-82 -21 -26 -11 -54 -18 -61 -15 -14 5 -68 -38 -59 -47 3 -2 -7 -8 -21 -11
-18 -5 -25 -12 -21 -21 3 -9 -1 -15 -9 -15 -8 0 -15 -8 -15 -17 0 -12 -3 -14
-8 -7 -5 9 -11 8 -20 -2 -7 -8 -10 -14 -8 -14 3 0 -5 -16 -19 -35 -23 -35 -36
-97 -39 -197 -1 -26 0 -48 3 -48 8 0 31 -51 31 -67 0 -7 5 -13 10 -13 6 0 10
-11 10 -25 0 -14 4 -25 9 -25 6 0 16 -21 23 -47 7 -25 19 -48 26 -51 17 -5 16
68 -2 136 -15 55 -8 68 14 26 l14 -25 13 25 c8 15 18 26 23 26 4 0 36 -27 71
-61 35 -34 67 -58 75 -55 8 3 14 1 14 -4 0 -6 6 -10 13 -10 6 0 34 -20 61 -45
50 -47 82 -59 163 -64 12 0 28 -7 35 -13 41 -39 48 -42 62 -22 8 10 18 15 22
11 5 -4 2 -12 -6 -17 -11 -7 -8 -10 13 -10 15 0 30 0 33 1 8 1 44 -42 44 -54
0 -5 -6 -4 -14 2 -9 7 -25 9 -43 4 -15 -4 -34 -6 -41 -4 -8 1 -20 -3 -28 -10
-12 -10 -13 -9 -9 3 5 11 -4 17 -32 21 -22 4 -39 2 -41 -3 -2 -6 -9 -7 -15 -3
-21 13 -55 8 -66 -9 -8 -14 -8 -18 1 -18 9 0 8 -4 -2 -11 -11 -8 -12 -12 -2
-16 6 -2 12 -11 12 -19 0 -8 5 -14 10 -14 6 0 10 -7 10 -15 0 -8 5 -15 10 -15
6 0 10 -11 10 -25 0 -19 5 -25 18 -23 9 2 16 -2 15 -8 -1 -7 8 -11 20 -11 12
1 33 -3 46 -7 18 -6 22 -5 15 5 -6 11 -5 12 7 3 18 -14 49 -14 49 0 0 6 5 3
11 -6 5 -9 16 -15 24 -12 9 4 18 -1 21 -11 4 -9 13 -14 21 -11 27 11 63 -5 69
-31 5 -17 13 -24 28 -22 11 0 27 1 35 0 21 -2 -3 -26 -44 -46 -19 -9 -35 -20
-35 -25 0 -15 16 -12 30 5 14 17 30 20 30 5 0 -5 -8 -10 -17 -10 -13 0 -14 -3
-5 -12 9 -9 16 -7 32 10 27 28 30 28 30 -5 0 -14 -3 -23 -7 -20 -3 4 -14 -7
-24 -23 -11 -17 -24 -30 -29 -30 -6 0 -9 4 -6 9 3 4 -8 8 -24 7 -31 -1 -39
-10 -17 -19 6 -3 -3 -3 -20 0 -24 4 -34 1 -39 -11 -7 -17 -34 -22 -34 -6 0 18
-18 11 -25 -10 -3 -11 -13 -20 -21 -20 -8 0 -14 -3 -14 -8 0 -9 -56 -34 -84
-37 -36 -4 -37 -5 -31 -15 3 -6 -5 -10 -19 -10 -13 0 -27 6 -30 13 -3 8 -8 7
-16 -6 -6 -9 -15 -15 -21 -12 -5 4 -15 3 -21 -2 -14 -8 -32 -13 -65 -16 -29
-3 -20 -13 35 -41 39 -20 122 -42 230 -62 21 -4 32 -34 12 -34 -15 0 -12 -58
3 -63 9 -3 8 -8 -3 -22 -14 -17 -13 -18 3 -12 15 6 16 4 6 -15 -10 -19 -9 -20
17 -14 26 6 27 5 12 -7 -10 -8 -14 -17 -10 -21 12 -12 11 -70 -2 -78 -8 -6 -8
-8 0 -8 6 0 9 -10 7 -24 -3 -15 3 -36 14 -53 11 -15 23 -36 26 -46 4 -11 12
-15 19 -11 7 4 10 4 6 -1 -10 -11 10 -45 26 -45 8 0 16 -9 19 -20 3 -13 11
-18 20 -14 11 4 14 1 11 -13 -11 -42 47 -70 84 -41 9 8 12 6 12 -6 0 -9 5 -16
10 -16 6 0 10 -7 10 -16 0 -11 -6 -14 -17 -10 -15 5 -15 4 1 -9 17 -13 17 -15
3 -21 -21 -8 -22 -30 -1 -38 8 -3 12 -2 9 4 -4 6 1 17 9 26 15 14 16 14 16 -5
0 -19 32 -37 48 -27 5 3 9 -1 9 -9 0 -8 -4 -15 -9 -15 -5 0 -6 -5 -3 -11 4 -6
13 -8 21 -5 10 4 14 -3 14 -21 l0 -26 -25 23 c-14 13 -25 18 -25 12 0 -7 5
-12 10 -12 6 0 10 -7 10 -15 0 -8 6 -15 13 -15 6 -1 -3 -13 -20 -29 -18 -15
-33 -33 -33 -39 0 -6 -14 -28 -32 -49 l-32 -38 33 30 c18 16 38 41 44 55 7 13
77 78 157 143 540 443 733 634 946 939 59 84 78 118 66 118 -4 0 -16 -16 -25
-36 -10 -19 -21 -33 -25 -30 -4 2 -23 -25 -42 -62 -55 -106 -142 -184 -146
-131 0 8 -2 16 -4 19 -8 15 -6 56 3 62 8 5 8 13 0 30 -6 13 -14 30 -16 38 -6
21 12 52 24 44 7 -4 7 1 0 14 -14 26 -14 35 0 26 8 -4 8 -1 1 12 -5 11 -6 28
-1 39 12 32 10 38 -8 24 -12 -10 -10 -3 7 28 13 24 28 39 34 36 6 -3 8 -3 4 1
-3 4 0 23 8 41 17 42 17 48 2 39 -8 -5 -9 -2 -5 10 4 10 7 21 7 24 0 4 4 1 9
-6 7 -11 9 -10 14 3 4 9 3 14 -3 10 -14 -9 -24 21 -14 42 8 19 13 53 8 53 -7
0 -58 -116 -57 -129 1 -9 -2 -10 -10 -2 -8 8 -8 17 0 33 21 43 45 137 40 153
-4 9 -1 15 7 15 20 0 15 32 -9 62 -13 15 -25 25 -27 23 -2 -2 -3 21 -3 53 2
64 -5 85 -16 56 -7 -15 -8 -12 -6 11 1 17 7 29 13 28 7 -1 9 8 6 25 -5 24 -6
25 -13 7 -7 -18 -8 -18 -8 -2 -1 10 6 20 14 23 11 5 13 10 5 19 -7 9 -8 15 -1
19 6 4 8 13 4 21 -3 8 0 15 6 15 6 0 11 9 11 19 0 11 5 23 10 26 6 4 7 11 4
17 -4 6 -10 5 -15 -3 -7 -11 -9 -11 -9 -1 0 7 7 15 15 18 8 4 15 15 15 25 0
21 62 89 80 89 6 0 9 -4 5 -9 -3 -6 3 -14 12 -20 10 -6 13 -11 8 -11 -15 0
-18 -67 -3 -76 6 -4 14 -2 16 4 2 7 7 12 11 12 11 0 1 -62 -13 -79 -8 -11 -8
-13 2 -7 8 4 12 1 12 -9 0 -12 -5 -15 -16 -11 -14 5 -15 4 -5 -8 7 -8 10 -19
8 -23 -3 -5 -8 -27 -11 -48 -3 -22 -11 -64 -17 -94 -11 -56 -7 -81 12 -81 8 0
7 5 -2 17 -12 15 -12 16 5 9 18 -6 19 -6 4 11 -13 15 -14 20 -3 30 7 6 14 10
16 8 2 -2 5 11 5 28 1 18 3 51 4 74 l3 41 28 -20 c39 -30 122 -22 185 18 54
33 70 58 31 49 -20 -5 -27 -2 -32 14 -3 12 -10 21 -14 21 -15 0 -22 62 -9 78
11 13 8 14 -31 8 -44 -7 -71 4 -71 29 0 9 14 13 46 12 37 -2 49 2 58 18 12 21
26 35 38 35 3 0 9 -18 13 -40 4 -22 12 -40 18 -40 38 1 88 55 122 130 10 22
22 40 27 40 4 0 8 13 8 30 0 16 5 42 11 57 7 15 17 42 24 58 50 122 84 239 85
294 0 2 -19 0 -42 -3 -58 -8 -72 -11 -83 -18 -16 -10 -59 -13 -71 -5 -7 4 -25
2 -40 -3 -25 -8 -47 -8 -97 -1 -4 0 -3 11 4 22 6 12 9 34 5 49 -4 25 -3 27 16
22 18 -4 20 -2 15 18 -5 21 -4 22 9 8 8 -8 16 -25 17 -37 3 -41 31 -17 70 59
41 80 91 249 81 275 -3 8 -1 15 5 15 6 0 8 6 5 13 -2 7 2 30 11 50 16 39 17
94 2 114 -5 7 -6 17 -2 23 3 5 -1 13 -9 16 -9 3 -16 11 -16 17 0 6 10 1 23
-11 29 -28 46 -29 22 -2 -17 18 -17 20 -2 14 29 -11 20 27 -15 65 -18 19 -25
29 -15 22 9 -7 17 -10 17 -6 0 4 9 -3 20 -16 24 -30 26 -18 3 18 -17 25 -17
26 7 18 25 -8 25 -8 6 14 -11 12 -14 21 -7 21 9 0 9 5 1 20 -7 14 -7 20 0 20
5 0 10 -4 10 -10 0 -5 5 -10 10 -10 7 0 7 6 0 20 -8 15 -8 20 1 20 7 0 10 12
7 30 -4 29 -4 29 14 13 18 -16 19 -16 8 12 -6 16 -7 31 -2 34 5 3 9 29 9 56 1
28 3 71 5 97 1 25 0 44 -3 42 -4 -2 -9 7 -11 21 -3 14 -1 25 4 25 5 0 6 5 3
11 -4 6 -13 8 -20 5 -8 -3 -16 5 -19 19 -3 13 -9 31 -13 42 -6 16 -5 16 10 4
16 -13 17 -12 7 14 -10 26 -9 27 6 14 16 -13 16 -11 0 19 -10 19 -15 36 -12
39 10 10 -66 141 -101 174 -26 25 -32 28 -24 12 15 -30 -6 -42 -25 -14 -9 12
-19 19 -23 17 -4 -3 -39 27 -76 66 -38 40 -87 81 -109 92 -23 10 -53 25 -69
32 l-27 13 22 -29 c13 -15 33 -33 46 -39 12 -6 22 -17 22 -24 0 -7 14 -23 31
-36 17 -13 28 -25 25 -29 -3 -3 1 -14 11 -24 10 -12 12 -18 4 -18 -7 0 -9 -5
-5 -12 4 -7 -8 -1 -26 13 -19 13 -42 29 -51 34 -40 24 -129 87 -129 92 0 3 20
-7 45 -20 25 -14 45 -21 45 -16 0 6 5 7 11 3 7 -4 10 -1 7 7 -3 8 -13 13 -22
13 -10 -1 -15 0 -12 4 10 10 -55 50 -142 87 -106 45 -118 55 -67 55 48 0 36
15 -13 16 -43 1 -129 32 -97 35 11 1 23 1 28 0 4 0 7 6 7 14 0 8 -5 15 -10 15
-18 0 -60 -32 -54 -41 6 -11 -24 -11 -51 1 -18 7 -18 8 7 15 15 4 33 14 40 23
12 13 10 14 -9 3 -19 -10 -23 -9 -23 4 0 8 -7 15 -15 15 -8 0 -15 5 -15 11 0
6 -9 9 -19 6 -13 -3 -18 0 -15 8 6 15 -25 24 -110 32 -33 3 -76 12 -95 21 -32
15 -33 16 -11 24 12 4 26 6 31 2 5 -3 9 -1 9 5 0 13 -90 7 -118 -8 -12 -6 -22
-8 -22 -3 0 5 9 13 20 18 33 15 -108 13 -155 -1z m98 -42 c-7 -2 -19 -2 -25 0
-7 3 -2 5 12 5 14 0 19 -2 13 -5z m-96 -9 c-3 -3 -12 -4 -19 -1 -8 3 -5 6 6 6
11 1 17 -2 13 -5z m213 -85 c0 -5 8 -9 18 -8 9 1 28 -2 41 -8 24 -10 24 -10 3
-15 -12 -4 -20 -2 -16 3 7 11 -7 11 -25 0 -7 -5 -11 -14 -7 -20 5 -7 -6 -10
-29 -9 -20 1 -40 -3 -43 -8 -4 -6 -27 -11 -52 -13 -48 -2 -82 -21 -39 -22 93
-2 225 -12 231 -17 4 -4 -33 -7 -82 -6 -50 0 -93 4 -97 7 -9 10 -25 9 -19 -2
3 -4 -5 -6 -18 -4 -13 3 -27 0 -30 -6 -4 -6 -17 -11 -29 -11 -12 0 -35 -14
-51 -30 -16 -17 -37 -30 -47 -30 -10 0 -21 -5 -24 -10 -4 -6 -10 -8 -15 -5 -4
3 -27 -2 -50 -10 -24 -8 -45 -14 -47 -12 -2 2 18 12 44 22 27 9 64 25 84 34
32 15 35 19 20 29 -14 9 -12 11 12 11 15 1 27 6 27 11 0 10 -24 12 -115 11
-43 -1 -47 1 -25 10 26 11 114 16 140 8 10 -3 15 3 15 20 0 25 22 41 34 24 3
-5 20 -6 36 -2 19 4 23 7 10 8 -17 1 -17 3 -5 11 8 5 19 5 23 1 5 -5 21 -3 35
5 15 8 37 14 50 14 12 0 22 5 22 10 0 12 -2 12 -34 0 -15 -5 -28 -5 -31 0 -5
8 19 14 68 19 9 0 17 -4 17 -10z m-165 -16 c-16 -9 -42 -16 -57 -14 -14 1 -29
-2 -33 -8 -3 -6 -12 -11 -18 -11 -34 1 79 47 118 49 16 0 13 -3 -10 -16z m455
13 c0 -2 -9 -6 -20 -9 -11 -3 -18 -1 -14 4 5 9 34 13 34 5z m-86 -34 c2 -4 -4
-9 -15 -9 -10 -1 -19 2 -19 8 0 11 27 12 34 1z m-144 -22 c-8 -5 -19 -10 -25
-10 -5 0 -3 5 5 10 8 5 20 10 25 10 6 0 3 -5 -5 -10z m-1200 -19 c0 -6 -4 -13
-10 -16 -5 -3 -10 1 -10 9 0 9 5 16 10 16 6 0 10 -4 10 -9z m910 -1 c0 -12 -8
-12 -35 0 -18 8 -17 9 8 9 15 1 27 -3 27 -9z m330 0 c0 -5 -12 -10 -27 -9 -25
0 -26 1 -8 9 27 12 35 12 35 0z m320 -33 c13 -5 13 -6 -1 -6 -8 -1 -24 6 -35
15 -19 15 -19 15 1 6 11 -5 27 -12 35 -15z m-1505 -16 c-3 -6 -11 -11 -17 -11
-6 0 -6 6 2 15 14 17 26 13 15 -4z m599 8 c4 6 22 11 39 10 32 -1 32 -1 5 -9
-14 -4 -32 -11 -40 -16 -7 -4 -20 -9 -29 -9 -14 -1 -15 2 -6 16 7 12 14 14 18
8 5 -8 9 -8 13 0z m857 -27 c-13 -2 -27 0 -32 5 -6 6 3 7 23 4 28 -4 29 -6 9
-9z m-331 -2 c-8 -5 -19 -10 -25 -10 -5 0 -3 5 5 10 8 5 20 10 25 10 6 0 3 -5
-5 -10z m427 -6 c-3 -3 -12 -4 -19 -1 -8 3 -5 6 6 6 11 1 17 -2 13 -5z m46 -1
c-7 -2 -19 -2 -25 0 -7 3 -2 5 12 5 14 0 19 -2 13 -5z m-183 -27 c0 -2 -9 -6
-20 -9 -11 -3 -18 -1 -14 4 5 9 34 13 34 5z m-1100 -56 c13 -11 29 -20 37 -20
7 0 13 -4 13 -10 0 -5 9 -10 19 -10 10 0 21 -7 24 -15 5 -11 1 -12 -19 -5 -45
17 -79 38 -98 59 -24 27 -7 27 24 1z m109 -6 c14 -13 -11 -12 -40 1 l-34 16
35 -7 c19 -3 37 -8 39 -10z m-179 -29 c0 -5 -5 -3 -10 5 -5 8 -10 20 -10 25 0
6 5 3 10 -5 5 -8 10 -19 10 -25z m141 -51 c26 -17 45 -35 42 -38 -4 -3 -17 1
-30 9 -13 9 -28 13 -34 10 -5 -4 -8 -1 -7 6 2 6 -14 24 -36 39 -21 14 -43 35
-49 46 -8 14 -1 11 28 -10 21 -17 60 -44 86 -62z m1234 66 c3 -6 -1 -7 -9 -4
-18 7 -21 14 -7 14 6 0 13 -4 16 -10z m306 -57 c13 -16 12 -17 -3 -4 -10 7
-18 15 -18 17 0 8 8 3 21 -13z m52 -13 c15 -16 23 -30 18 -30 -5 0 -19 14 -31
30 -12 17 -20 30 -17 30 2 0 16 -13 30 -30z m-2008 -50 c10 -11 16 -20 13 -20
-3 0 -13 9 -23 20 -10 11 -16 20 -13 20 3 0 13 -9 23 -20z m1996 -7 c13 -16
12 -17 -3 -4 -10 7 -18 15 -18 17 0 8 8 3 21 -13z m148 -35 c-8 -15 -8 -19 0
-14 7 4 11 -1 11 -13 0 -18 28 -80 41 -91 10 -8 17 -60 8 -54 -5 3 -9 11 -9
19 0 7 -7 21 -15 29 -9 9 -25 36 -36 61 -11 24 -34 59 -52 76 -24 23 -27 28
-9 20 18 -10 23 -9 28 4 6 14 8 14 25 -1 15 -13 16 -21 8 -36z m-2234 -9 c15
-15 -19 -11 -56 6 l-34 16 40 -6 c22 -4 44 -11 50 -16z m1975 7 c6 -8 17 -13
24 -10 14 5 49 -29 52 -53 2 -8 12 -22 25 -31 12 -8 40 -33 63 -56 48 -47 29
-34 -69 50 -106 90 -131 114 -119 114 6 0 17 -6 24 -14z m-1415 -25 c19 -16
31 -32 28 -35 -4 -3 -13 4 -21 15 -8 12 -29 27 -46 35 -21 9 -25 13 -12 14 10
0 33 -13 51 -29z m1576 -8 c13 -16 12 -17 -3 -4 -10 7 -18 15 -18 17 0 8 8 3
21 -13z m-1616 -3 c3 -5 2 -10 -4 -10 -5 0 -13 5 -16 10 -3 6 -2 10 4 10 5 0
13 -4 16 -10z m1665 -92 c57 -51 30 -49 -30 3 -33 29 -60 54 -60 56 0 8 61
-32 90 -59z m-1816 36 c3 -8 2 -12 -4 -9 -6 3 -10 10 -10 16 0 14 7 11 14 -7z
m1537 -11 c13 -16 12 -17 -3 -4 -10 7 -18 15 -18 17 0 8 8 3 21 -13z m-1326
-23 c-3 -5 -12 -10 -18 -10 -7 0 -6 4 3 10 19 12 23 12 15 0z m1636 -127 c13
-16 12 -17 -3 -4 -17 13 -22 21 -14 21 2 0 10 -8 17 -17z m39 -115 c0 -17 -10
-6 -25 25 l-16 32 20 -25 c11 -14 21 -28 21 -32z m30 -251 c0 -5 -13 5 -30 21
-16 17 -30 36 -30 43 0 14 59 -50 60 -64z m-60 -17 c6 -11 8 -20 6 -20 -3 0
-10 9 -16 20 -6 11 -8 20 -6 20 3 0 10 -9 16 -20z m44 -25 c3 -8 1 -15 -3 -15
-5 0 -11 7 -15 15 -3 8 -1 15 3 15 5 0 11 -7 15 -15z m-356 -30 c-3 -3 -9 2
-12 12 -6 14 -5 15 5 6 7 -7 10 -15 7 -18z m350 -70 c-3 -3 -9 2 -12 12 -6 14
-5 15 5 6 7 -7 10 -15 7 -18z m-43 -55 c10 -11 16 -20 13 -20 -3 0 -13 9 -23
20 -10 11 -16 20 -13 20 3 0 13 -9 23 -20z m-558 -161 c2 -16 -1 -19 -9 -11
-5 5 -7 15 -4 21 10 15 12 14 13 -10z m-1087 -139 c0 -5 -4 -10 -10 -10 -5 0
-10 5 -10 10 0 6 5 10 10 10 6 0 10 -4 10 -10z m650 0 c8 -5 11 -10 5 -10 -5
0 -17 5 -25 10 -8 5 -10 10 -5 10 6 0 17 -5 25 -10z m-610 -10 c0 -5 -2 -10
-4 -10 -3 0 -8 5 -11 10 -3 6 -1 10 4 10 6 0 11 -4 11 -10z m660 0 c0 -5 -5
-10 -11 -10 -5 0 -7 5 -4 10 3 6 8 10 11 10 2 0 4 -4 4 -10z m425 -69 c-6 -5
-25 10 -25 20 0 5 6 4 14 -3 8 -7 12 -15 11 -17z m40 19 c-3 -5 -11 -10 -16
-10 -6 0 -7 5 -4 10 3 6 11 10 16 10 6 0 7 -4 4 -10z m-25 -60 c0 -5 -2 -10
-4 -10 -3 0 -8 5 -11 10 -3 6 -1 10 4 10 6 0 11 -4 11 -10z m80 -50 c0 -5 -7
-10 -15 -10 -8 0 -15 5 -15 10 0 6 7 10 15 10 8 0 15 -4 15 -10z m154 -136 c3
-8 2 -12 -4 -9 -6 3 -10 10 -10 16 0 14 7 11 14 -7z m36 -4 c6 -11 7 -20 2
-20 -6 0 -12 9 -15 20 -3 11 -3 20 -1 20 2 0 8 -9 14 -20z m-340 -80 c0 -5 -2
-10 -4 -10 -3 0 -8 5 -11 10 -3 6 -1 10 4 10 6 0 11 -4 11 -10z m584 -230 c0
-41 -5 -84 -12 -95 -10 -17 -11 -13 -6 25 3 25 1 72 -4 105 -11 65 -6 89 12
59 5 -11 10 -53 10 -94z m-1534 -50 c0 -5 -2 -10 -4 -10 -3 0 -8 5 -11 10 -3
6 -1 10 4 10 6 0 11 -4 11 -10z m810 -20 c0 -5 -2 -10 -4 -10 -3 0 -8 5 -11
10 -3 6 -1 10 4 10 6 0 11 -4 11 -10z m-56 -66 c5 -14 4 -15 -9 -4 -17 14 -19
20 -6 20 5 0 12 -7 15 -16z m-54 -54 c0 -5 -4 -10 -10 -10 -5 0 -10 5 -10 10
0 6 5 10 10 10 6 0 10 -4 10 -10z m240 -11 c0 -4 -7 -6 -15 -3 -8 4 -15 10
-15 15 0 4 7 6 15 3 8 -4 15 -10 15 -15z m223 7 c4 -10 0 -14 -13 -13 -14 1
-16 4 -8 14 13 16 15 16 21 -1z m-561 -8 c-8 -8 -8 -15 -1 -24 8 -9 5 -11 -9
-7 -10 2 -19 11 -19 18 0 8 4 12 9 9 4 -3 8 0 8 5 0 6 5 11 12 11 9 0 9 -3 0
-12z m485 -25 c-3 -10 -5 -4 -5 12 0 17 2 24 5 18 2 -7 2 -21 0 -30z m-433 11
c3 -8 2 -12 -4 -9 -6 3 -10 10 -10 16 0 14 7 11 14 -7z m516 -23 c0 -10 -20
-37 -20 -27 0 5 -6 3 -14 -3 -11 -9 -15 -8 -20 5 -10 25 -7 32 12 36 19 5 42
-1 42 -11z m-670 -21 c0 -5 -2 -10 -4 -10 -3 0 -8 5 -11 10 -3 6 -1 10 4 10 6
0 11 -4 11 -10z m60 -16 c0 -2 -7 -4 -15 -4 -8 0 -15 4 -15 10 0 5 7 7 15 4 8
-4 15 -8 15 -10z m689 -130 c16 -16 31 -38 33 -49 8 -49 -115 3 -125 53 -11
59 29 58 92 -4z m-1793 -227 l16 -31 15 27 c18 35 27 34 56 -8 l24 -36 13 31
c14 34 32 34 83 -3 25 -17 28 -25 25 -63 -4 -61 6 -55 18 9 9 50 10 52 40 51
47 -2 82 -30 90 -71 10 -54 1 -57 -133 -45 -170 14 -212 26 -229 66 -11 26
-13 28 -14 9 0 -31 -27 -29 -42 2 -6 13 -15 22 -19 19 -5 -3 -9 4 -9 15 0 10
-3 26 -6 35 -3 9 -1 16 4 16 6 0 12 -8 15 -17 3 -14 6 -11 11 9 9 32 20 29 42
-15z m463 -73 c3 -2 -6 -15 -18 -28 -21 -23 -22 -25 -4 -29 10 -3 5 -5 -12 -4
-26 2 -30 6 -27 27 4 44 10 52 34 44 13 -3 25 -8 27 -10z m1053 -56 c-7 -7
-12 -8 -12 -2 0 6 3 14 7 17 3 4 9 5 12 2 2 -3 -1 -11 -7 -17z m38 -8 c0 -5
-4 -10 -10 -10 -5 0 -10 5 -10 10 0 6 5 10 10 10 6 0 10 -4 10 -10z m-1188
-112 c-7 -7 -12 -8 -12 -2 0 6 3 14 7 17 3 4 9 5 12 2 2 -3 -1 -11 -7 -17z
m568 -73 c-7 -9 -15 -13 -19 -10 -3 3 1 10 9 15 21 14 24 12 10 -5z m-105
-126 c-10 -15 -25 -10 -19 6 4 8 10 12 15 9 5 -3 7 -10 4 -15z m-105 -68 c0
-5 -7 -12 -16 -15 -14 -5 -15 -4 -4 9 14 17 20 19 20 6z m-220 -181 c0 -5 -5
-10 -11 -10 -5 0 -7 5 -4 10 3 6 8 10 11 10 2 0 4 -4 4 -10z m980 -121 c0 -6
-4 -7 -10 -4 -5 3 -10 11 -10 16 0 6 5 7 10 4 6 -3 10 -11 10 -16z m4 -35 c5
-14 4 -15 -9 -4 -17 14 -19 20 -6 20 5 0 12 -7 15 -16z m-20 -19 c3 -8 1 -15
-4 -15 -5 0 -7 -8 -3 -17 4 -11 2 -15 -3 -10 -11 10 -13 57 -3 57 4 0 9 -7 13
-15z m-1034 -585 c0 -5 -2 -10 -4 -10 -3 0 -8 5 -11 10 -3 6 -1 10 4 10 6 0
11 -4 11 -10z m115 -70 c3 -5 1 -10 -4 -10 -6 0 -11 5 -11 10 0 6 2 10 4 10 3
0 8 -4 11 -10z m39 -49 c-7 -8 -30 25 -26 37 3 9 8 6 16 -10 7 -12 11 -25 10
-27z"/>
<path d="M3500 5570 c-8 -5 -12 -11 -9 -14 3 -3 14 1 25 9 21 16 8 20 -16 5z"/>
<path d="M4365 5160 c3 -5 16 -15 28 -21 22 -12 22 -12 3 10 -19 21 -43 30
-31 11z"/>
<path d="M2704 5724 c-19 -15 -19 -15 1 -6 11 5 27 12 35 15 13 5 13 6 -1 6
-8 1 -24 -6 -35 -15z"/>
<path d="M3076 5721 c-3 -4 6 -6 19 -3 14 2 25 6 25 8 0 8 -39 4 -44 -5z"/>
<path d="M2683 5692 c-47 -19 -71 -38 -33 -27 31 9 98 44 85 44 -5 0 -29 -8
-52 -17z"/>
<path d="M3038 5703 c7 -3 16 -2 19 1 4 3 -2 6 -13 5 -11 0 -14 -3 -6 -6z"/>
<path d="M2990 5690 c-13 -8 -13 -10 2 -10 9 0 20 5 23 10 8 13 -5 13 -25 0z"/>
<path d="M4091 5687 c2 -2 17 -11 32 -21 27 -17 28 -17 15 4 -7 11 -21 20 -32
20 -11 0 -17 -1 -15 -3z"/>
<path d="M2834 5664 c-18 -14 -18 -14 6 -3 31 14 36 19 24 19 -6 0 -19 -7 -30
-16z"/>
<path d="M3850 5669 c0 -5 5 -7 10 -4 6 3 10 8 10 11 0 2 -4 4 -10 4 -5 0 -10
-5 -10 -11z"/>
<path d="M3886 5656 c6 -14 102 -41 112 -31 5 5 4 5 -67 30 -53 18 -52 18 -45
1z"/>
<path d="M4171 5647 c2 -1 13 -9 24 -17 19 -14 19 -14 6 3 -7 9 -18 17 -24 17
-6 0 -8 -1 -6 -3z"/>
<path d="M2855 5630 c-3 -5 -2 -10 4 -10 5 0 13 5 16 10 3 6 2 10 -4 10 -5 0
-13 -4 -16 -10z"/>
<path d="M3162 5629 c-54 -11 -49 -19 7 -15 29 3 55 7 57 9 9 9 -32 13 -64 6z"/>
<path d="M3268 5623 c7 -3 16 -2 19 1 4 3 -2 6 -13 5 -11 0 -14 -3 -6 -6z"/>
<path d="M3080 5610 c-13 -8 -13 -10 2 -10 9 0 18 -6 21 -12 4 -10 7 -10 18 0
11 10 10 12 -3 12 -9 0 -18 4 -20 10 -2 6 -8 6 -18 0z"/>
<path d="M4019 5609 c-9 -6 -2 -8 24 -7 39 1 43 6 10 12 -11 3 -26 0 -34 -5z"/>
<path d="M4180 5605 c7 -8 20 -17 31 -20 10 -4 19 -12 19 -18 0 -7 17 -23 37
-37 21 -14 60 -46 87 -72 27 -26 61 -55 75 -64 26 -17 26 -17 9 3 -10 11 -18
24 -18 30 0 16 -149 138 -165 137 -7 -1 -11 4 -9 11 3 7 -13 18 -36 28 -33 13
-39 13 -30 2z"/>
<path d="M4053 5584 c4 -4 21 -8 38 -9 22 -2 27 0 18 6 -16 10 -66 12 -56 3z"/>
<path d="M2698 5563 c6 -2 18 -2 25 0 6 3 1 5 -13 5 -14 0 -19 -2 -12 -5z"/>
<path d="M2920 5550 c-18 -12 -2 -12 25 0 13 6 15 9 5 9 -8 0 -22 -4 -30 -9z"/>
<path d="M2510 5520 c-9 -6 -10 -10 -3 -10 6 0 15 5 18 10 8 12 4 12 -15 0z"/>
<path d="M4090 5509 c0 -5 5 -7 10 -4 6 3 10 8 10 11 0 2 -4 4 -10 4 -5 0 -10
-5 -10 -11z"/>
<path d="M2908 5503 c7 -3 16 -2 19 1 4 3 -2 6 -13 5 -11 0 -14 -3 -6 -6z"/>
<path d="M4184 5476 c11 -9 24 -16 30 -16 12 0 7 5 -24 19 -24 11 -24 11 -6
-3z"/>
<path d="M4464 5362 c2 -17 33 -82 40 -82 2 0 7 8 10 17 4 10 4 14 0 11 -9
-10 -47 39 -39 51 3 5 1 12 -3 15 -5 3 -9 -2 -8 -12z"/>
<path d="M4276 5339 c3 -6 15 -9 25 -6 10 3 17 1 16 -5 -1 -5 14 -21 33 -35
l35 -25 -35 31 c-35 32 -35 39 3 20 19 -9 18 -7 -3 10 -26 22 -87 30 -74 10z"/>
<path d="M2490 5166 c0 -2 8 -10 18 -17 15 -13 16 -12 3 4 -13 16 -21 21 -21
13z"/>
<path d="M2560 5143 c0 -4 5 -15 10 -23 8 -13 10 -13 10 2 0 9 -4 20 -10 23
-5 3 -10 3 -10 -2z"/>
<path d="M4670 5146 c0 -2 8 -10 18 -17 15 -13 16 -12 3 4 -13 16 -21 21 -21
13z"/>
<path d="M2288 5133 c7 -3 16 -2 19 1 4 3 -2 6 -13 5 -11 0 -14 -3 -6 -6z"/>
<path d="M2675 5090 c10 -11 23 -20 28 -20 6 0 1 9 -11 20 -12 11 -24 20 -28
20 -4 0 1 -9 11 -20z"/>
<path d="M2205 5080 c-3 -6 1 -7 9 -4 18 7 21 14 7 14 -6 0 -13 -4 -16 -10z"/>
<path d="M1093 5043 c-19 -7 -16 -44 4 -59 19 -13 43 -2 43 21 0 17 -33 43
-47 38z"/>
<path d="M2147 5007 c3 -5 -1 -13 -8 -18 -8 -5 -9 -9 -3 -9 6 0 18 8 27 18 15
16 15 18 -3 18 -10 0 -16 -4 -13 -9z"/>
<path d="M2890 5010 c0 -5 7 -10 16 -10 8 0 12 5 9 10 -3 6 -10 10 -16 10 -5
0 -9 -4 -9 -10z"/>
<path d="M2091 4933 c-12 -14 -24 -38 -27 -52 -3 -14 -7 -31 -9 -38 -6 -18 19
-5 33 17 10 17 9 19 -6 14 -15 -5 -15 -4 -1 8 14 12 43 78 34 78 -2 0 -13 -12
-24 -27z"/>
<path d="M2130 4949 c0 -5 5 -7 10 -4 6 3 10 8 10 11 0 2 -4 4 -10 4 -5 0 -10
-5 -10 -11z"/>
<path d="M2050 4800 c-6 -11 -8 -20 -6 -20 3 0 10 9 16 20 6 11 8 20 6 20 -3
0 -10 -9 -16 -20z"/>
<path d="M1843 4505 c-14 -19 -36 -30 -86 -41 -44 -10 -72 -23 -80 -35 -8 -12
-23 -19 -44 -19 -25 0 -38 -8 -63 -40 -31 -39 -33 -60 -4 -60 8 0 14 -1 14 -2
1 -2 3 -21 6 -43 9 -60 19 -72 66 -79 37 -6 45 -4 57 13 10 16 24 21 57 21 23
0 46 -4 49 -10 9 -14 42 -12 48 3 10 27 -38 97 -67 97 -17 0 -46 43 -46 68 0
27 39 59 82 67 36 7 48 23 48 68 0 24 -15 21 -37 -8z"/>
<path d="M4070 4390 c0 -5 5 -10 10 -10 6 0 10 5 10 10 0 6 -4 10 -10 10 -5 0
-10 -4 -10 -10z"/>
<path d="M4090 4360 c0 -5 5 -10 10 -10 6 0 10 5 10 10 0 6 -4 10 -10 10 -5 0
-10 -4 -10 -10z"/>
<path d="M4015 4330 c3 -5 8 -10 11 -10 2 0 4 5 4 10 0 6 -5 10 -11 10 -5 0
-7 -4 -4 -10z"/>
<path d="M3900 4310 c0 -5 5 -10 11 -10 5 0 7 5 4 10 -3 6 -8 10 -11 10 -2 0
-4 -4 -4 -10z"/>
<path d="M3955 4299 c-10 -15 3 -25 16 -12 7 7 7 13 1 17 -6 3 -14 1 -17 -5z"/>
<path d="M3910 4259 c0 -11 4 -18 10 -14 5 3 7 12 3 20 -7 21 -13 19 -13 -6z"/>
<path d="M3945 4260 c-6 -10 1 -14 18 -11 5 1 6 -3 3 -8 -4 -5 -2 -12 3 -15
16 -10 24 14 11 29 -14 17 -26 19 -35 5z"/>
<path d="M1430 4226 c0 -7 7 -19 15 -26 13 -11 15 -8 15 14 0 16 -5 26 -15 26
-8 0 -15 -6 -15 -14z"/>
<path d="M3394 4229 c-3 -6 -2 -15 4 -21 6 -6 11 -2 15 11 5 22 -7 29 -19 10z"/>
<path d="M3235 4210 c-3 -5 -2 -10 4 -10 5 0 13 5 16 10 3 6 2 10 -4 10 -5 0
-13 -4 -16 -10z"/>
<path d="M3270 4209 c0 -5 5 -7 10 -4 6 3 10 8 10 11 0 2 -4 4 -10 4 -5 0 -10
-5 -10 -11z"/>
<path d="M2756 4203 c-3 -4 -16 -8 -27 -10 -11 -2 -32 -10 -47 -18 -23 -12
-24 -14 -7 -15 18 0 18 -1 2 -17 -13 -13 -20 -14 -29 -5 -9 9 -16 8 -30 -5
-10 -9 -18 -12 -18 -6 0 6 -16 9 -36 6 -20 -2 -43 2 -52 9 -14 11 -15 10 -8
-6 7 -19 6 -19 -13 -2 -15 14 -42 19 -120 23 -100 4 -121 0 -79 -16 18 -6 10
-10 -42 -19 -36 -7 -66 -16 -68 -22 -2 -5 -13 -10 -23 -10 -11 0 -17 -4 -14
-10 3 -5 -1 -10 -9 -10 -18 0 -22 -16 -6 -22 6 -2 -2 -17 -18 -33 -35 -37 -46
-71 -24 -80 8 -3 23 2 33 11 11 10 19 12 19 6 0 -6 -4 -14 -10 -17 -16 -10
-12 -25 8 -25 15 -1 15 -2 -2 -15 -20 -15 -20 -15 0 -15 11 0 38 18 59 40 22
22 48 40 60 39 14 0 15 -2 5 -6 -8 -3 -35 -25 -61 -49 -33 -33 -56 -46 -90
-52 l-44 -8 44 -11 c43 -11 71 -8 71 8 0 19 39 30 62 17 40 -23 48 -34 35 -47
-9 -10 -5 -11 18 -6 20 5 26 4 16 -3 -15 -11 2 -27 18 -18 5 4 11 0 14 -6 3
-10 8 -9 22 2 14 11 17 11 11 1 -5 -8 -3 -17 5 -22 10 -6 3 -9 -21 -10 l-35
-1 35 -14 c33 -13 30 -14 -60 -10 l-95 4 65 -25 c67 -25 230 -41 230 -22 0 5
4 9 10 9 5 0 7 -6 4 -13 -3 -8 3 -13 15 -13 11 0 17 4 14 9 -3 5 1 8 8 6 8 -1
28 -1 44 0 22 1 26 4 16 10 -9 6 -22 6 -33 0 -12 -6 -18 -6 -18 0 0 6 12 17
28 25 l27 15 -25 1 c-20 0 -22 2 -10 10 8 5 25 10 38 10 14 0 26 8 32 23 5 12
9 15 9 7 1 -12 3 -12 17 1 10 10 16 37 17 79 2 55 6 67 35 98 31 34 43 60 22
47 -6 -4 -6 2 0 17 6 13 13 31 16 41 6 15 54 26 54 11 0 -10 -28 -34 -39 -34
-6 0 -11 -4 -11 -8 0 -15 29 -9 35 6 3 8 12 11 20 8 11 -4 15 2 15 19 0 25
-11 30 -55 27 -11 -1 -15 1 -10 5 6 5 12 19 12 32 2 23 2 23 -19 5 -12 -11
-18 -14 -15 -8 7 12 18 84 13 84 -1 0 -6 -3 -10 -7z m-419 -359 c-7 -7 -37 7
-37 17 0 6 9 5 21 -1 11 -7 19 -14 16 -16z"/>
<path d="M3435 4200 c3 -5 8 -10 11 -10 2 0 4 5 4 10 0 6 -5 10 -11 10 -5 0
-7 -4 -4 -10z"/>
<path d="M3940 4202 c0 -5 9 -17 21 -28 17 -15 22 -16 29 -4 10 16 4 30 -11
30 -6 0 -7 -6 -4 -12 4 -7 0 -5 -8 5 -15 18 -27 22 -27 9z"/>
<path d="M2823 4130 c-7 -11 -13 -22 -13 -25 0 -10 26 -5 41 8 8 6 12 11 10
10 -2 -2 -9 4 -15 12 -10 13 -13 13 -23 -5z"/>
<path d="M1916 4014 c7 -3 9 -14 6 -26 -4 -15 -2 -19 7 -13 10 6 11 3 2 -12
-6 -11 -8 -23 -5 -26 10 -9 33 -121 27 -131 -4 -5 -1 -6 5 -2 6 3 14 36 18 73
5 51 4 69 -7 77 -8 6 -20 23 -26 39 -7 15 -18 27 -25 26 -9 0 -9 -2 -2 -5z"/>
<path d="M6378 3993 c-7 -10 -42 -40 -78 -68 -36 -27 -77 -63 -93 -80 -19 -20
-30 -26 -34 -17 -6 16 -54 15 -77 -3 -28 -21 -69 -19 -100 6 -15 12 -30 19
-33 15 -3 -3 -12 -1 -19 5 -17 14 -89 2 -105 -17 -6 -8 -8 -14 -4 -14 4 0 -3
-11 -16 -24 -14 -14 -40 -26 -59 -28 l-35 -4 28 -14 c27 -13 30 -12 45 8 15
19 25 21 87 18 45 -2 86 -11 115 -24 37 -18 57 -20 115 -16 45 4 80 13 97 25
24 17 31 17 63 6 34 -11 46 -26 75 -87 4 -8 17 -16 29 -18 21 -3 21 -2 21 172
0 97 -2 176 -4 176 -3 0 -11 -8 -18 -17z"/>
<path d="M4084 3860 c0 -13 4 -16 10 -10 7 7 7 13 0 20 -6 6 -10 3 -10 -10z"/>
<path d="M4220 3830 c0 -5 5 -10 11 -10 5 0 7 5 4 10 -3 6 -8 10 -11 10 -2 0
-4 -4 -4 -10z"/>
<path d="M5617 3793 c-4 -3 -7 -11 -7 -17 0 -6 5 -5 12 2 6 6 9 14 7 17 -3 3
-9 2 -12 -2z"/>
<path d="M4236 3777 c3 -10 9 -15 12 -12 3 3 0 11 -7 18 -10 9 -11 8 -5 -6z"/>
<path d="M2255 3771 c6 -5 24 -13 40 -17 39 -9 30 0 -15 15 -19 6 -30 7 -25 2z"/>
<path d="M4719 3583 c-16 -17 -34 -73 -25 -73 3 0 21 11 40 24 35 23 35 24 18
46 -17 21 -18 21 -33 3z"/>
<path d="M3996 3522 c-7 -12 12 -38 21 -28 4 5 2 11 -5 13 -6 3 -10 9 -6 14 3
5 3 9 0 9 -3 0 -7 -4 -10 -8z"/>
<path d="M4100 3520 c0 -5 5 -10 10 -10 6 0 10 5 10 10 0 6 -4 10 -10 10 -5 0
-10 -4 -10 -10z"/>
<path d="M3838 3499 c15 -17 16 -53 0 -43 -7 4 -8 3 -4 -4 10 -16 32 -5 32 17
0 10 -9 24 -21 31 -16 10 -18 10 -7 -1z"/>
<path d="M4676 3484 c-10 -25 1 -29 14 -5 6 12 7 21 1 21 -5 0 -12 -7 -15 -16z"/>
<path d="M4013 3438 c-14 -19 -11 -31 14 -57 l23 -24 -10 32 c-5 18 -6 39 -3
47 6 17 -11 19 -24 2z"/>
<path d="M4220 3421 c0 -5 5 -13 10 -16 6 -3 10 -2 10 4 0 5 -4 13 -10 16 -5
3 -10 2 -10 -4z"/>
<path d="M3748 3408 c17 -21 62 -30 55 -11 -3 7 -9 10 -14 7 -5 -2 -19 1 -31
7 -20 11 -22 10 -10 -3z"/>
<path d="M4126 3403 c-6 -14 -5 -15 5 -6 7 7 10 15 7 18 -3 3 -9 -2 -12 -12z"/>
<path d="M4015 3340 c3 -5 14 -10 23 -10 15 0 15 2 2 10 -20 13 -33 13 -25 0z"/>
<path d="M3640 3310 c0 -5 5 -10 10 -10 6 0 10 5 10 10 0 6 -4 10 -10 10 -5 0
-10 -4 -10 -10z"/>
<path d="M4045 3300 c3 -5 8 -10 11 -10 2 0 4 5 4 10 0 6 -5 10 -11 10 -5 0
-7 -4 -4 -10z"/>
<path d="M6167 3262 c-15 -15 -27 -35 -27 -43 0 -61 117 -46 132 17 14 58 -58
75 -105 26z"/>
<path d="M4040 3260 c0 -5 5 -10 10 -10 6 0 10 5 10 10 0 6 -4 10 -10 10 -5 0
-10 -4 -10 -10z"/>
<path d="M6381 3256 c-9 -10 -8 -16 4 -26 13 -11 15 -8 15 14 0 30 -3 32 -19
12z"/>
<path d="M2490 3202 c0 -12 62 -68 83 -75 20 -7 57 12 57 29 0 5 -9 20 -20 32
-16 17 -32 22 -70 22 -28 0 -50 -4 -50 -8z"/>
<path d="M4568 3158 c-33 -71 -102 -176 -137 -207 -14 -13 -19 -19 -11 -15 8
5 42 9 75 9 100 2 99 2 113 107 6 52 7 97 3 102 -5 6 -11 22 -13 36 -4 22 -8
17 -30 -32z"/>
<path d="M4120 3154 c0 -14 3 -14 15 -4 8 7 15 14 15 16 0 2 -7 4 -15 4 -8 0
-15 -7 -15 -16z"/>
<path d="M1173 3092 c-3 -12 -11 -22 -17 -22 -7 0 -13 -7 -13 -15 0 -8 6 -15
13 -15 7 0 17 -7 22 -16 7 -13 13 -14 29 -5 25 13 20 51 -8 77 -19 17 -20 17
-26 -4z"/>
<path d="M5305 3081 c-17 -7 -14 -10 20 -20 48 -13 55 -14 55 -3 0 7 -46 34
-53 31 -1 0 -11 -4 -22 -8z"/>
<path d="M6056 3065 c4 -8 10 -15 15 -15 5 0 9 7 9 15 0 8 -7 15 -15 15 -9 0
-12 -6 -9 -15z"/>
<path d="M5438 3053 c-26 -7 -22 -29 13 -73 33 -41 37 -42 87 -21 35 15 37 19
19 42 -10 14 -91 61 -99 58 -2 -1 -11 -3 -20 -6z"/>
<path d="M4130 3016 c0 -9 5 -16 10 -16 6 0 10 4 10 9 0 6 -4 13 -10 16 -5 3
-10 -1 -10 -9z"/>
<path d="M5693 3007 c-15 -13 -36 -26 -45 -30 -12 -4 -18 -17 -18 -36 0 -23
-7 -34 -30 -48 -42 -24 -41 -64 4 -106 18 -18 41 -31 50 -29 15 3 47 -26 101
-90 41 -49 88 -68 177 -73 100 -4 116 -10 124 -41 6 -21 12 -24 58 -24 28 0
64 7 80 15 26 14 30 14 40 0 16 -22 79 -31 97 -13 8 8 27 18 42 22 l27 6 0
149 c0 110 -3 151 -12 154 -10 4 -10 6 0 6 8 1 12 20 12 62 0 41 -3 58 -11 53
-6 -3 -14 -2 -18 3 -11 17 -89 23 -95 7 -3 -8 -11 -14 -19 -14 -7 0 -24 -11
-36 -24 -18 -19 -33 -24 -74 -24 -62 0 -97 24 -89 63 6 32 -6 32 -18 0 -5 -14
-16 -25 -24 -25 -8 0 -23 -11 -33 -24 -12 -17 -30 -26 -54 -27 -32 -3 -42 3
-92 54 -64 65 -97 73 -144 34z m267 -257 c0 -5 -4 -10 -10 -10 -5 0 -10 5 -10
10 0 6 5 10 10 10 6 0 10 -4 10 -10z"/>
<path d="M4030 2970 c0 -5 5 -10 11 -10 5 0 7 5 4 10 -3 6 -8 10 -11 10 -2 0
-4 -4 -4 -10z"/>
<path d="M4145 2940 c-3 -5 -1 -10 4 -10 6 0 11 5 11 10 0 6 -2 10 -4 10 -3 0
-8 -4 -11 -10z"/>
<path d="M4342 2911 c-17 -11 -41 -55 -57 -108 l-13 -43 33 0 c19 0 46 -5 62
-11 15 -7 83 -13 150 -14 102 -1 126 -4 142 -19 26 -24 37 -15 44 35 3 22 12
48 20 57 13 15 14 21 2 49 -13 31 -16 32 -42 22 -37 -15 -63 -18 -163 -22 -66
-3 -93 -9 -122 -26 -37 -22 -58 -21 -58 3 0 6 5 17 12 24 11 11 18 62 8 62 -3
0 -11 -4 -18 -9z"/>
<path d="M5167 2886 c-21 -44 -53 -54 -107 -32 -53 21 -67 20 -73 -4 -3 -11
-13 -23 -24 -26 -51 -17 -83 -40 -83 -60 0 -12 -7 -27 -15 -34 -16 -13 -20
-39 -7 -41 66 -7 115 -4 119 7 4 11 9 11 26 -1 18 -11 181 -22 244 -16 7 0 23
24 36 52 l25 50 -36 35 c-20 20 -41 50 -47 67 -14 44 -37 45 -58 3z"/>
<path d="M4060 2789 c0 -5 -6 -7 -12 -3 -10 6 -10 5 -1 -7 7 -8 10 -25 6 -37
-6 -26 5 -29 23 -4 18 24 18 62 -1 62 -8 0 -15 -5 -15 -11z"/>
<path d="M1360 2730 c0 -13 18 -22 24 -11 3 5 -1 11 -9 15 -8 3 -15 1 -15 -4z"/>
<path d="M5643 2688 c1 -6 -7 -14 -19 -17 -11 -3 -40 -23 -64 -43 -41 -36 -43
-39 -30 -63 11 -21 20 -25 61 -25 55 0 69 15 69 74 0 19 4 37 9 40 13 9 1 46
-15 46 -8 0 -13 -5 -11 -12z"/>
<path d="M4116 2565 c-9 -26 -7 -32 5 -12 6 10 9 21 6 23 -2 3 -7 -2 -11 -11z"/>
<path d="M678 2533 c-45 -3 -71 -9 -79 -20 -12 -14 3 -15 151 -9 201 8 290 16
290 27 0 9 -215 9 -362 2z"/>
<path d="M4207 2323 c3 -7 20 -13 39 -13 20 0 34 -5 34 -12 0 -11 29 21 30 33
0 3 -24 6 -54 6 -41 0 -53 -4 -49 -14z"/>
<path d="M4535 2223 c-4 -10 -104 -94 -222 -188 -119 -93 -246 -197 -283 -230
-150 -136 -170 -155 -170 -166 0 -8 -6 -7 -17 2 -15 13 -15 12 -3 -11 13 -24
12 -24 -5 -10 -10 8 -16 10 -12 3 4 -6 3 -14 -3 -18 -6 -4 -7 -11 -4 -17 4 -7
2 -8 -5 -4 -6 4 -8 13 -4 19 4 7 0 6 -10 -2 -9 -7 -14 -18 -10 -25 4 -6 -2 -4
-12 4 -19 15 -19 14 -2 -13 l18 -28 -27 17 c-27 18 -27 18 -15 -4 12 -22 9
-26 -21 -23 -23 3 -32 -17 -16 -36 10 -13 7 -12 -16 2 l-29 19 12 -22 c6 -12
16 -22 21 -22 6 0 0 -11 -11 -24 l-21 -24 -20 20 c-16 16 -22 18 -28 7 -5 -7
-4 -21 1 -32 10 -17 9 -17 -13 -6 -22 11 -22 11 -6 -7 14 -16 14 -21 2 -32 -8
-7 -12 -17 -9 -23 10 -15 -12 -10 -25 6 -11 13 -10 14 4 9 16 -6 23 10 9 19
-5 2 -1 2 7 0 12 -3 13 -2 2 9 -10 10 -17 7 -36 -17 -17 -21 -21 -34 -14 -42
5 -7 7 -17 3 -23 -4 -6 -2 -16 4 -23 7 -10 4 -13 -15 -15 -13 -1 -24 3 -24 9
0 6 8 8 18 5 16 -6 16 -5 0 8 -22 16 -23 30 -3 22 21 -8 19 1 -3 13 -17 9 -18
5 -18 -39 1 -26 5 -52 9 -56 4 -5 5 -2 2 7 -4 10 1 15 15 15 24 0 24 0 4 -20
-24 -24 -52 -5 -48 33 2 17 0 32 -4 35 -10 6 -8 -92 3 -101 4 -5 5 -2 0 6 -5
9 -4 12 3 7 6 -4 9 -13 6 -21 -4 -8 -11 -12 -18 -8 -8 5 -8 3 0 -8 6 -8 12
-21 12 -29 0 -8 3 -26 6 -39 3 -15 -2 -33 -14 -49 -11 -13 -17 -28 -14 -33 3
-5 1 -9 -5 -9 -6 0 -7 -8 -4 -17 6 -16 5 -16 -10 -5 -15 13 -13 42 3 42 14 0
20 29 7 36 -7 4 -9 3 -4 -1 4 -5 0 -16 -9 -26 -19 -21 -25 -62 -12 -81 7 -9 8
-7 3 7 -5 15 -3 17 6 8 30 -29 -15 -36 -91 -13 -25 7 -47 14 -50 15 -3 1 -18
5 -35 9 -16 4 -39 12 -50 17 -65 29 -75 29 -106 6 -50 -36 -128 -114 -122
-121 4 -3 2 -6 -4 -6 -14 0 -37 -56 -28 -69 4 -8 12 -8 27 0 14 8 23 8 31 0
12 -12 6 -13 -40 -14 -13 0 -23 -6 -23 -13 0 -21 12 -44 22 -44 6 0 4 8 -3 17
-8 9 -9 14 -2 10 17 -10 74 25 68 42 -5 11 -3 12 10 1 18 -15 20 0 3 20 -7 8
-3 6 10 -5 23 -19 23 -19 17 1 -5 12 5 6 25 -16 24 -27 28 -29 15 -8 -17 27
-17 27 12 24 33 -3 66 11 58 25 -4 5 -2 9 4 9 22 0 19 -19 -5 -38 l-27 -19 24
2 c13 1 24 6 24 11 0 5 4 15 8 22 5 6 5 12 0 12 -4 1 3 7 16 14 14 8 32 11 40
8 9 -3 12 -1 7 6 -5 8 -1 10 10 5 13 -5 15 -3 9 7 -6 9 -4 11 5 5 10 -6 9 -11
-5 -22 -16 -11 -17 -15 -5 -26 10 -9 12 -9 6 1 -4 6 -2 12 3 12 19 0 26 -5 23
-17 -1 -6 3 -15 9 -19 8 -4 9 -3 5 4 -4 7 -5 12 -2 12 3 0 10 -9 16 -20 6 -11
7 -19 3 -18 -17 4 -53 -14 -47 -24 4 -7 2 -8 -4 -4 -6 4 -9 13 -6 20 3 8 1 16
-4 20 -5 3 -8 -8 -7 -23 1 -22 -2 -28 -13 -23 -11 4 -13 2 -7 -9 7 -11 5 -11
-10 1 -17 14 -18 13 -11 -5 5 -15 4 -17 -4 -8 -9 8 -17 6 -31 -8 -15 -15 -24
-17 -38 -10 -24 13 -58 -9 -46 -30 5 -8 -2 -5 -15 6 l-23 20 13 -25 13 -25
-22 19 c-16 14 -20 16 -16 5 4 -10 -3 -20 -17 -27 -21 -10 -19 -10 12 -6 60 8
78 12 89 19 6 3 19 8 28 10 10 3 38 9 62 15 24 6 50 9 58 6 7 -3 13 -2 13 3 0
4 7 8 15 8 8 0 15 -2 15 -3 0 -8 -78 -43 -83 -38 -3 3 -15 0 -27 -6 -22 -12
-43 -18 -93 -27 -15 -3 -30 -10 -34 -16 -4 -7 5 -8 28 -3 58 12 134 24 137 21
13 -12 -65 -115 -87 -115 -6 0 -11 -4 -11 -10 0 -5 -8 -10 -19 -10 -10 0 -29
-10 -43 -22 -13 -13 -34 -24 -47 -26 -57 -8 -71 -49 -55 -165 5 -36 10 -45 25
-44 11 1 19 7 19 14 0 20 38 15 45 -6 5 -18 -42 -131 -55 -131 -3 0 -15 15
-27 33 -18 25 -23 47 -23 94 0 33 -3 88 -6 121 -6 51 -10 63 -28 68 -30 9 -62
41 -77 77 -17 41 -31 55 -48 49 -9 -3 -11 0 -6 7 4 7 -2 22 -13 34 -11 12 -25
33 -32 46 -12 23 -13 24 -26 7 -12 -17 -15 -17 -53 10 -22 16 -41 33 -41 37 0
5 -9 20 -20 35 -18 23 -19 27 -6 40 13 13 17 13 32 1 16 -12 17 -12 9 1 -5 8
-19 29 -31 45 -13 17 -35 57 -49 88 -20 43 -32 57 -47 57 -21 0 -21 0 -2 -21
19 -22 19 -22 -3 -10 -41 21 -41 -4 7 320 23 152 50 267 80 336 20 46 20 46 0
83 -11 20 -20 42 -20 49 0 7 -6 13 -14 13 -22 0 -151 -125 -191 -186 -20 -30
-43 -57 -51 -60 -8 -2 -22 -7 -31 -10 -10 -4 -25 -7 -33 -8 -24 -2 -80 -39
-85 -57 -9 -27 6 -69 24 -70 10 0 11 -2 4 -6 -7 -2 -13 -11 -13 -19 0 -9 4
-12 10 -9 6 3 7 -1 4 -9 -3 -9 -2 -16 2 -16 5 0 10 -12 10 -26 2 -25 61 -151
124 -264 17 -30 23 -48 14 -38 -15 15 -19 15 -48 -1 -17 -10 -36 -16 -43 -14
-6 2 -15 -6 -19 -19 -8 -27 -32 -47 -56 -48 -9 0 -23 -6 -30 -14 -8 -7 -28
-21 -45 -29 -32 -17 -153 -143 -153 -160 0 -5 -12 -23 -26 -40 -28 -33 -97
-171 -97 -193 0 -8 -3 -14 -6 -14 -14 0 -51 -102 -70 -190 -11 -52 -29 -131
-41 -174 -11 -44 -20 -83 -20 -88 0 -4 275 -8 610 -8 l610 0 0 50 c0 36 4 50
14 50 11 0 12 -8 5 -37 -5 -21 -9 -44 -9 -50 0 -10 350 -13 1715 -13 l1715 0
0 430 c-1 301 -4 430 -12 430 -7 0 -7 4 1 14 9 10 8 15 -4 20 -8 3 -15 11 -15
18 0 7 -24 22 -52 34 -29 11 -52 26 -50 32 1 7 -7 12 -17 12 -10 0 -21 6 -24
14 -6 15 -92 76 -108 76 -5 0 -9 5 -9 11 0 5 -4 7 -10 4 -5 -3 -20 3 -32 15
-12 11 -28 18 -36 15 -7 -2 -11 -1 -8 4 3 5 -21 25 -55 45 -33 20 -57 31 -54
26 14 -23 -16 -8 -31 15 -9 14 -20 25 -26 25 -5 0 -22 10 -37 21 -16 12 -34
19 -39 15 -6 -3 -14 -1 -18 5 -4 8 -3 9 4 5 7 -4 12 -2 12 5 0 7 -11 10 -30 7
-20 -3 -30 0 -30 9 0 7 -9 13 -19 13 -11 0 -27 10 -35 22 -9 12 -19 18 -23 14
-5 -5 -2 -11 5 -13 6 -3 12 -8 12 -12 0 -5 -20 1 -44 13 -36 17 -42 24 -34 39
7 15 4 17 -29 17 -26 0 -33 3 -24 9 17 11 4 34 -14 27 -8 -3 -19 2 -25 10 -7
8 -21 14 -31 14 -11 0 -19 4 -19 8 0 12 -59 44 -70 37 -5 -3 -19 0 -31 8 -15
11 -17 16 -7 20 9 4 6 8 -8 12 -12 4 -31 20 -43 36 -16 21 -30 29 -52 29 -17
0 -32 6 -35 15 -4 8 -12 15 -19 15 -7 0 -15 3 -17 8 -1 4 -16 14 -33 23 -242
128 -385 267 -454 440 -29 72 -75 129 -106 129 -13 0 -26 -8 -30 -17z m885
-763 c0 -5 -2 -10 -4 -10 -3 0 -8 5 -11 10 -3 6 -1 10 4 10 6 0 11 -4 11 -10z
m-1775 -38 c-3 -3 -11 0 -18 7 -9 10 -8 11 6 5 10 -3 15 -9 12 -12z m-75 -87
c11 -13 11 -18 0 -28 -10 -10 -11 -9 -5 2 5 9 1 19 -10 28 -11 7 -14 13 -8 13
6 0 16 -7 23 -15z m2196 -82 c-7 -7 -26 7 -26 19 0 6 6 6 15 -2 9 -7 13 -15
11 -17z m59 -3 c8 -13 -5 -13 -25 0 -13 8 -13 10 2 10 9 0 20 -4 23 -10z
m-2298 -55 c0 -8 -4 -12 -9 -9 -5 3 -6 10 -3 15 9 13 12 11 12 -6z m-12 -33
c-3 -3 -11 0 -18 7 -9 10 -8 11 6 5 10 -3 15 -9 12 -12z m2425 4 c0 -9 -9 -14
-20 -13 -25 2 -26 14 -2 20 9 3 18 5 20 6 1 0 2 -5 2 -13z m97 -66 c10 0 26
-9 36 -20 17 -20 44 -29 33 -11 -4 5 4 7 16 3 12 -3 17 -7 10 -10 -6 -2 -12
-8 -12 -13 0 -4 6 -6 14 -3 8 3 16 1 20 -4 7 -12 -21 -8 -67 8 -25 10 -36 19
-32 28 4 10 0 13 -13 10 -11 -3 -32 6 -53 24 -34 30 -34 30 -2 9 17 -12 40
-21 50 -21z m168 -90 c3 -5 2 -10 -4 -10 -5 0 -17 -3 -27 -7 -16 -6 -17 -5 -4
10 17 19 26 21 35 7z m-3075 -14 c0 -2 -7 -7 -16 -10 -8 -3 -12 -2 -9 4 6 10
25 14 25 6z m112 -63 c-6 -2 -10 -8 -8 -12 3 -4 -11 -16 -30 -26 -20 -10 -33
-24 -30 -31 3 -9 -1 -11 -11 -7 -10 4 -14 2 -10 -4 12 -19 -27 -9 -44 12 -15
18 -15 20 9 39 28 22 52 29 52 16 0 -5 12 -2 28 6 15 7 34 14 42 13 10 0 11
-2 2 -6z m3098 -13 c0 -5 -2 -10 -4 -10 -3 0 -8 5 -11 10 -3 6 -1 10 4 10 6 0
11 -4 11 -10z m-3242 -75 c-3 -3 -9 2 -12 12 -6 14 -5 15 5 6 7 -7 10 -15 7
-18z m-408 -179 c0 -3 -4 -8 -10 -11 -5 -3 -10 -1 -10 4 0 6 5 11 10 11 6 0
10 -2 10 -4z m50 -76 c0 -5 -5 -10 -11 -10 -5 0 -7 5 -4 10 3 6 8 10 11 10 2
0 4 -4 4 -10z"/>
<path d="M3130 875 c-8 -9 -8 -15 -2 -15 12 0 26 19 19 26 -2 2 -10 -2 -17
-11z"/>
<path d="M2704 1443 c-16 -99 -7 -182 36 -318 22 -71 44 -143 49 -160 6 -16
11 -50 12 -75 2 -31 12 -58 31 -84 15 -22 28 -46 28 -53 0 -7 4 -13 8 -13 11
0 32 -46 32 -70 0 -11 4 -20 10 -20 17 0 30 74 24 141 -7 69 -1 87 50 149 l21
25 -23 -19 c-12 -11 -24 -17 -26 -15 -12 14 -137 294 -151 339 -10 30 -21 60
-25 65 -4 6 -17 43 -30 83 -12 39 -26 72 -31 72 -4 0 -11 -21 -15 -47z"/>
<path d="M3654 1481 c4 -6 2 -11 -5 -11 -8 0 -8 -4 1 -15 16 -19 26 -19 34 0
3 9 -3 19 -16 26 -15 8 -18 8 -14 0z"/>
<path d="M3011 1196 c12 -10 59 -15 59 -6 0 5 -14 10 -32 10 -17 0 -29 -2 -27
-4z"/>
<path d="M3035 1160 c-4 -6 -13 -9 -20 -8 -8 2 -13 -1 -12 -7 2 -9 8 -9 46 -1
8 1 17 8 19 14 5 15 -24 16 -33 2z"/>
<path d="M3070 1125 c-7 -8 -8 -15 -2 -15 5 0 15 7 22 15 7 8 8 15 2 15 -5 0
-15 -7 -22 -15z"/>
<path d="M3462 1124 c10 -10 20 -16 22 -13 3 3 -5 11 -17 18 -21 13 -21 12 -5
-5z"/>
<path d="M3460 1094 c8 -10 15 -20 16 -22 1 -2 4 1 7 5 3 5 -4 15 -16 23 -21
12 -21 12 -7 -6z"/>
<path d="M3260 860 c6 -11 13 -20 16 -20 2 0 0 9 -6 20 -6 11 -13 20 -16 20
-2 0 0 -9 6 -20z"/>
<path d="M2750 730 c6 -11 13 -20 16 -20 2 0 0 9 -6 20 -6 11 -13 20 -16 20
-2 0 0 -9 6 -20z"/>
<path d="M3070 640 c-12 -8 -10 -10 8 -10 13 0 20 4 17 10 -7 12 -6 12 -25 0z"/>
<path d="M2913 621 c-12 -31 -5 -68 14 -76 24 -9 26 -1 10 52 -13 45 -15 47
-24 24z"/>
</g>
</svg>
